
        <svg xmlns="http://www.w3.org/2000/svg" xmlns:xlink="http://www.w3.org/1999/xlink" version="1.1" width="3300" 
        height="2320.1996888993" viewBox="0 0 3300 2320.1996888993">
			<rect fill="#f7fbfc" width="3300" height="2320.1996888993"/>
			<g transform="scale(15) translate(10, 10)">
				<defs id="SvgjsDefs7668"><linearGradient id="SvgjsLinearGradient7675"><stop id="SvgjsStop7676" stop-color="#834f2a" offset="0"></stop><stop id="SvgjsStop7677" stop-color="#dba173" offset="0.5"></stop><stop id="SvgjsStop7678" stop-color=" #834F2A" offset="1"></stop></linearGradient><linearGradient id="SvgjsLinearGradient7679"><stop id="SvgjsStop7680" stop-color="#834f2a" offset="0"></stop><stop id="SvgjsStop7681" stop-color="#dba173" offset="0.5"></stop><stop id="SvgjsStop7682" stop-color=" #834F2A" offset="1"></stop></linearGradient></defs><g id="SvgjsG7669" featureKey="symbolFeature-0" transform="matrix(63.000017003063974,0,0,63.000017003063974,37.983890838997155,9.98424808628412)" fill="url(#SvgjsLinearGradient7675)"><defs xmlns="http://www.w3.org/2000/svg"></defs><g xmlns="http://www.w3.org/2000/svg"><g><path class="fil0" d="M0.965 0.016l-0.329 0.541 -0.588 -0.349c-0.015,-0.009 -0.035,-0.004 -0.044,0.011 -0.004,0.008 -0.005,0.017 -0.002,0.026l0.304 0.931c0.004,0.014 0.016,0.024 0.031,0.024l1.311 0c0.015,0 0.027,-0.011 0.031,-0.026l0.304 -0.929c0.005,-0.017 -0.004,-0.035 -0.02,-0.04 -0.009,-0.003 -0.019,-0.002 -0.027,0.003l-0.587 0.349 -0.329 -0.541c-0.013,-0.021 -0.042,-0.021 -0.055,0z" style="fill: url(#SvgjsLinearGradient7675);"></path></g></g></g><g id="SvgjsG7670" featureKey="nameFeature-0" transform="matrix(0.7058408176879815,0,0,0.7058408176879815,0,88.00988081289306)" fill="#111111"><path d="M13.68 21.84 l-3.92 0 l0 -4.2 c0 -1.96 -1.48 -2.92 -2.92 -2.92 c-1.48 0 -2.92 0.96 -2.92 2.92 l0 4.2 c0 2.48 9.76 1.4 9.76 8.68 l0 3.92 c0 4.2 -3.44 6.32 -6.84 6.32 c-3.44 0 -6.84 -2.12 -6.84 -6.32 l0 -4.2 l3.92 0 l0 4.2 c0 1.96 1.44 2.92 2.92 2.92 c1.44 0 2.92 -0.96 2.92 -2.92 l0 -4.2 c0 -2.76 -9.76 -1.4 -9.76 -8.4 l0 -4.2 c0 -4.2 3.4 -6.32 6.84 -6.32 c3.4 0 6.84 2.12 6.84 6.32 l0 4.2 z M34.07 40 l-0.6 -3.36 l-5.56 0 l-0.56 3.36 l-3.92 0 l5.2 -27.96 l0.2 0 l3.92 0 l5.2 27.96 l-3.88 0 z M28.63 32.72 l4.16 0 l-2.08 -11.8 z M58.06 12 l3.88 0 l0 28 l-3.88 0 l-6.44 -17.44 l0 17.44 l-3.92 0 l0 -28 l3.92 0 l6.44 17.44 l0 -17.44 z M71.69 40.04 l0 -27.96 l3.92 0 l0 27.96 l-3.92 0 z M85.36 12 l13.48 0 l0 3.92 l-4.8 0 l0 24.08 l-3.88 0 l0 -24.08 l-4.8 0 l0 -3.92 z M108.59 40.04 l0 -27.96 l3.92 0 l0 27.96 l-3.92 0 z M136.5 12 l0 3.92 l-9.48 20.16 l9.48 0 l0 3.92 l-14.24 0 l0 -3.92 l9.48 -20.16 l-9.48 0 l0 -3.92 l14.24 0 z M158.81 15.96 l-8.64 0 l0 6.44 l7.24 0 l0 3.92 l-7.24 0 l0 9.84 l8.64 0 l0 3.88 l-8.64 0 l-3.92 0 l0 -27.96 l12.56 0 l0 3.88 z M181.96 24.880000000000003 c0 2.92 -1.72 5 -4.4 5.48 l4.4 9.64 l-4.2 0 l-4.32 -9.52 l-0.96 0 l0 9.52 l-3.92 0 l0 -28 l7.8 0 c3.36 0 5.6 2.24 5.6 5.6 l0 7.28 z M178.04 23.8 l0 -5.12 c0 -2.04 -0.72 -2.76 -2.8 -2.76 l-2.76 0 l0 10.64 l2.76 0 c2.08 0 2.8 -0.72 2.8 -2.76 z M222.26000000000002 39.96 l-4.16 0 l-6.72 -12.04 l0 12.04 l-3.92 0 l0 -27.96 l3.92 0 l0 10 l5.84 -10 l4.2 0 l-7.56 12.88 z M232.01000000000002 40.04 l0 -27.96 l3.92 0 l0 27.96 l-3.92 0 z M256.04 12 l3.88 0 l0 28 l-3.88 0 l-6.44 -17.44 l0 17.44 l-3.92 0 l0 -28 l3.92 0 l6.44 17.44 l0 -17.44 z M276.71000000000004 26.439999999999998 l6.64 0 l0 3.84 l0 4.16 c0 4.24 -3.44 6.36 -6.84 6.36 c-3.44 0 -6.84 -2.12 -6.84 -6.36 l0 -16.76 c0 -4.24 3.4 -6.36 6.84 -6.36 c3.4 0 6.84 2.12 6.84 6.36 l0 4.16 l-3.92 0 l0 -4.76 c0 -1.4 -1.48 -2.08 -2.92 -2.08 c-1.48 0 -2.92 0.68 -2.92 2.08 l0 18.2 c0 1.44 1.44 2.12 2.92 2.12 c1.44 0 2.92 -0.68 2.92 -2.12 l0 -4.96 l-2.72 0 l0 -3.88 z"></path></g><g id="SvgjsG7671" featureKey="sloganFeature-0" transform="matrix(0.739610773566922,0,0,0.739610773566922,19.999999735494576,119.82859639385293)" fill="url(#SvgjsLinearGradient7679)"><path d="M4.26 19.92 l-2.1 -7.88 l-0.3 0.5 l0 7.44 l-1.86 0 l0 -14.26 l1.86 0 l0 3.1 l1.24 -3.1 l2.3 0 l-1.9 4.12 l2.7 10.08 l-1.94 0 z M23.2025 12.46 l-2.76 0 l0 5.64 l2.78 0 l0 1.9 l-4.68 0 l0 -14.28 l4.68 0 l0 1.9 l-2.78 0 l0 2.94 l2.76 0 l0 1.9 z M40.625 12.46 l-2.76 0 l0 5.64 l2.78 0 l0 1.9 l-4.68 0 l0 -14.28 l4.68 0 l0 1.9 l-2.78 0 l0 2.94 l2.76 0 l0 1.9 z M55.2875 17 l0 2.98 l-1.9 0 l0 -14.26 l2.96 0 c1.32 0 2.38 1.08 2.38 2.4 l0 6.5 c0 1.32 -1.06 2.38 -2.38 2.38 l-1.06 0 z M55.2875 7.619999999999999 l0 7.48 l1.06 0 c0.28 0 0.48 -0.2 0.48 -0.48 l0 -6.5 c0 -0.28 -0.2 -0.5 -0.48 -0.5 l-1.06 0 z M89.11250000000001 5.68 l0 14.24 l-1.9 0 l0 -14.24 l1.9 0 z M108.775 5.68 l0 1.92 l-2.38 0 l0 12.42 l-1.92 0 l0 -12.42 l-2.62 0 l0 -1.92 l6.92 0 z M139.94000000000003 19.96 c-1.48 0 -2.68 -1.2 -2.68 -2.68 l0 -8.88 c0 -1.48 1.2 -2.68 2.68 -2.68 s2.68 1.2 2.68 2.68 l0 0.8 l-1.9 0 l0 -0.8 c0 -0.42 -0.36 -0.78 -0.78 -0.78 s-0.78 0.36 -0.78 0.78 l0 8.88 c0 0.42 0.36 0.78 0.78 0.78 s0.78 -0.36 0.78 -0.78 l0 -1.28 l1.9 0 l0 1.28 c0 1.48 -1.2 2.68 -2.68 2.68 z M157.2425 18.12 l2.76 0 l0 1.88 l-4.64 0 l0 -14.36 l1.88 0 l0 12.48 z M177.405 12.46 l-2.76 0 l0 5.64 l2.78 0 l0 1.9 l-4.68 0 l0 -14.28 l4.68 0 l0 1.9 l-2.78 0 l0 2.94 l2.76 0 l0 1.9 z M195.0275 20 l-0.72 -4.94 l-2.02 0 l-0.66 4.94 l-1.92 0 l2.16 -14.3 l2.58 0 l2.5 14.3 l-1.92 0 z M192.5475 13.16 l1.48 0 l-0.76 -5.2 z M214.32999999999998 16.72 l0.08 -11.08 l1.92 0 l-0.12 14.44 l-2.98 0 l-1.62 -11.18 l0 11.18 l-1.92 0 l0 -14.44 l3.1 0 z"></path></g>
			</g>
		</svg>
	